<svg xmlns="http://www.w3.org/2000/svg" viewBox="0 0 32 32">
  <defs>
    <linearGradient id="bulb-glow" x1="0" y1="0" x2="1" y2="1">
      <stop offset="0" stop-color="#a855f7" />
      <stop offset="1" stop-color="#ec4899" />
    </linearGradient>
  </defs>
  <rect x="3" y="3" width="26" height="26" rx="10" fill="#020617" />
  <circle cx="16" cy="13" r="7" fill="url(#bulb-glow)" />
  <path
    d="M13 13.5a3 3 0 1 1 6 0c0 1.5-.7 2.4-1.4 3.1-.3.3-.6.6-.8 1a3.2 3.2 0 0 0-.3.8c-.1.3-.1.6-.1 1H15.5c0-.4 0-.7-.2-1a3.2 3.2 0 0 0-.3-.8c-.2-.4-.5-.7-.8-1-.7-.7-1.4-1.6-1.4-3.1Z"
    fill="#020617"
  />
  <rect x="13.25" y="20" width="5.5" height="1.4" rx="0.7" fill="#e5e7eb" />
  <rect x="13.75" y="22" width="4.5" height="1.4" rx="0.7" fill="#e5e7eb" />
  <path
    d="M16 6.5v-2"
    stroke="#a855f7"
    stroke-width="1.4"
    stroke-linecap="round"
  />
  <path
    d="M9.5 9 8 7.5"
    stroke="#a855f7"
    stroke-width="1.2"
    stroke-linecap="round"
  />
  <path
    d="M22.5 9 24 7.5"
    stroke="#a855f7"
    stroke-width="1.2"
    stroke-linecap="round"
  />
</svg>

