<svg xmlns="http://www.w3.org/2000/svg" viewBox="0 0 32 32">
  <rect width="32" height="32" rx="8" fill="#18181b"/>
  <!-- Bulb (pear shape) - matches shared lightbulb asset -->
  <path fill="#fafafa" d="M16 4c-4 0-7 3.2-7 7.2 0 2.2 1 4 2.6 5.2L12 18v2h8v-2l.4-1.6c1.6-1.2 2.6-3 2.6-5.2C23 7.2 20 4 16 4z"/>
  <path fill="none" stroke="#e4e4e7" stroke-width="0.8" stroke-linecap="round" d="M14 14 L16 8 L18 14"/>
  <line x1="16" y1="8" x2="16" y2="6" stroke="#d4d4d8" stroke-width="0.8" stroke-linecap="round"/>
  <!-- Base -->
  <rect x="13" y="20" width="6" height="2" rx="1" fill="#a1a1aa"/>
  <rect x="13.5" y="22.5" width="5" height="1.5" rx="0.75" fill="#a1a1aa"/>
  <rect x="14" y="24.5" width="4" height="1.5" rx="0.75" fill="#a1a1aa"/>
</svg>
